<svg width="859" height="310" viewBox="0 0 859 310" fill="none" xmlns="http://www.w3.org/2000/svg">
<path d="M675.384 308.198L653.984 277.198L635.984 308.198H598.984L635.784 251.198L597.984 196.598H636.384L657.784 227.398L675.784 196.598H712.784L675.384 252.798L713.784 308.198H675.384Z" fill="#ED1C24"/>
<path d="M591.342 250.6C591.342 253.8 591.142 257.133 590.742 260.6H513.342C513.876 267.533 516.076 272.867 519.942 276.6C523.942 280.2 528.809 282 534.542 282C543.076 282 549.009 278.4 552.342 271.2H588.742C586.876 278.533 583.476 285.133 578.542 291C573.742 296.867 567.676 301.467 560.342 304.8C553.009 308.133 544.809 309.8 535.742 309.8C524.809 309.8 515.076 307.467 506.542 302.8C498.009 298.133 491.342 291.467 486.542 282.8C481.742 274.133 479.342 264 479.342 252.4C479.342 240.8 481.676 230.667 486.342 222C491.142 213.333 497.809 206.667 506.342 202C514.876 197.333 524.676 195 535.742 195C546.542 195 556.142 197.267 564.542 201.8C572.942 206.333 579.476 212.8 584.142 221.2C588.942 229.6 591.342 239.4 591.342 250.6ZM556.342 241.6C556.342 235.733 554.342 231.067 550.342 227.6C546.342 224.133 541.342 222.4 535.342 222.4C529.609 222.4 524.742 224.067 520.742 227.4C516.876 230.733 514.476 235.467 513.542 241.6H556.342Z" fill="#ED1C24"/>
<path d="M343.6 252.199C343.6 240.733 345.733 230.666 350 221.999C354.4 213.333 360.333 206.666 367.8 201.999C375.267 197.333 383.6 194.999 392.8 194.999C400.133 194.999 406.8 196.533 412.8 199.599C418.933 202.666 423.733 206.799 427.2 211.999V160.199H461.4V308.199H427.2V292.199C424 297.533 419.4 301.799 413.4 304.999C407.533 308.199 400.667 309.799 392.8 309.799C383.6 309.799 375.267 307.466 367.8 302.799C360.333 297.999 354.4 291.266 350 282.599C345.733 273.799 343.6 263.666 343.6 252.199ZM427.2 252.399C427.2 243.866 424.8 237.133 420 232.199C415.333 227.266 409.6 224.799 402.8 224.799C396 224.799 390.2 227.266 385.4 232.199C380.733 236.999 378.4 243.666 378.4 252.199C378.4 260.733 380.733 267.533 385.4 272.599C390.2 277.533 396 279.999 402.8 279.999C409.6 279.999 415.333 277.533 420 272.599C424.8 267.666 427.2 260.933 427.2 252.399Z" fill="#ED1C24"/>
<path d="M838.303 37C832.303 37 827.37 35.2667 823.503 31.8C819.77 28.2 817.903 23.8 817.903 18.6C817.903 13.2667 819.77 8.86667 823.503 5.4C827.37 1.8 832.303 0 838.303 0C844.17 0 848.97 1.8 852.703 5.4C856.57 8.86667 858.503 13.2667 858.503 18.6C858.503 23.8 856.57 28.2 852.703 31.8C848.97 35.2667 844.17 37 838.303 37ZM855.303 48.6V160.2H821.103V48.6H855.303Z" fill="#ED1C24"/>
<path d="M678.561 104.199C678.561 92.7325 680.694 82.6659 684.961 73.9992C689.361 65.3325 695.294 58.6659 702.761 53.9992C710.228 49.3325 718.561 46.9992 727.761 46.9992C735.094 46.9992 741.761 48.5325 747.761 51.5992C753.894 54.6659 758.694 58.7992 762.161 63.9992V12.1992H796.361V160.199H762.161V144.199C758.961 149.533 754.361 153.799 748.361 156.999C742.494 160.199 735.628 161.799 727.761 161.799C718.561 161.799 710.228 159.466 702.761 154.799C695.294 149.999 689.361 143.266 684.961 134.599C680.694 125.799 678.561 115.666 678.561 104.199ZM762.161 104.399C762.161 95.8659 759.761 89.1325 754.961 84.1992C750.294 79.2659 744.561 76.7992 737.761 76.7992C730.961 76.7992 725.161 79.2659 720.361 84.1992C715.694 88.9992 713.361 95.6659 713.361 104.199C713.361 112.733 715.694 119.533 720.361 124.599C725.161 129.533 730.961 131.999 737.761 131.999C744.561 131.999 750.294 129.533 754.961 124.599C759.761 119.666 762.161 112.933 762.161 104.399Z" fill="#ED1C24"/>
<path d="M667.319 102.6C667.319 105.8 667.119 109.133 666.719 112.6H589.319C589.852 119.533 592.052 124.867 595.919 128.6C599.919 132.2 604.786 134 610.519 134C619.052 134 624.986 130.4 628.319 123.2H664.719C662.852 130.533 659.452 137.133 654.519 143C649.719 148.867 643.652 153.467 636.319 156.8C628.986 160.133 620.786 161.8 611.719 161.8C600.786 161.8 591.052 159.467 582.519 154.8C573.986 150.133 567.319 143.467 562.519 134.8C557.719 126.133 555.319 116 555.319 104.4C555.319 92.8 557.652 82.6667 562.319 74C567.119 65.3333 573.786 58.6667 582.319 54C590.852 49.3333 600.652 47 611.719 47C622.519 47 632.119 49.2667 640.519 53.8C648.919 58.3333 655.452 64.8 660.119 73.2C664.919 81.6 667.319 91.4 667.319 102.6ZM632.319 93.6C632.319 87.7333 630.319 83.0667 626.319 79.6C622.319 76.1333 617.319 74.4 611.319 74.4C605.586 74.4 600.719 76.0667 596.719 79.4C592.852 82.7333 590.452 87.4667 589.519 93.6H632.319Z" fill="#ED1C24"/>
<path d="M492.8 47.3984C506.667 47.3984 517.667 51.5984 525.8 59.9984C534.067 68.3984 538.2 80.0651 538.2 94.9984V160.198H504.2V99.5984C504.2 92.3984 502.267 86.8651 498.4 82.9984C494.667 78.9984 489.467 76.9984 482.8 76.9984C476.133 76.9984 470.867 78.9984 467 82.9984C463.267 86.8651 461.4 92.3984 461.4 99.5984V160.198H427.4V99.5984C427.4 92.3984 425.467 86.8651 421.6 82.9984C417.867 78.9984 412.667 76.9984 406 76.9984C399.333 76.9984 394.067 78.9984 390.2 82.9984C386.467 86.8651 384.6 92.3984 384.6 99.5984V160.198H350.4V48.5984H384.6V62.5984C388.067 57.9318 392.6 54.2651 398.2 51.5984C403.8 48.7984 410.133 47.3984 417.2 47.3984C425.6 47.3984 433.067 49.1984 439.6 52.7984C446.267 56.3984 451.467 61.5318 455.2 68.1984C459.067 62.0651 464.333 57.0651 471 53.1984C477.667 49.3318 484.933 47.3984 492.8 47.3984Z" fill="#ED1C24"/>
<path opacity="0.4" d="M86.3999 201.96C91.0349 202.905 95.8499 203.4 100.8 203.4C105.75 203.4 110.565 202.905 115.2 201.96V210.6C115.2 238.455 137.745 261 165.6 261C193.455 261 216 238.455 216 210.6V172.125C220.5 173.7 225.36 174.6 230.4 174.6C235.44 174.6 240.3 173.745 244.8 172.125V210.6C244.8 254.34 209.34 289.8 165.6 289.8C121.86 289.8 86.3999 254.34 86.3999 210.6V201.96Z" fill="#ED1C24"/>
<path d="M50.3998 45C38.4748 45 28.7998 54.675 28.7998 66.6V131.4C28.7998 171.18 61.0198 203.4 100.8 203.4C140.58 203.4 172.8 171.18 172.8 131.4V66.6C172.8 54.675 163.125 45 151.2 45H129.6C121.635 45 115.2 51.435 115.2 59.4C115.2 67.365 121.635 73.8 129.6 73.8H144V131.4C144 155.25 124.65 174.6 100.8 174.6C76.9498 174.6 57.5998 155.25 57.5998 131.4V73.8H71.9998C79.9648 73.8 86.3998 67.365 86.3998 59.4C86.3998 51.435 79.9648 45 71.9998 45H50.3998ZM216 131.4C216 123.435 222.435 117 230.4 117C238.365 117 244.8 123.435 244.8 131.4C244.8 139.365 238.365 145.8 230.4 145.8C222.435 145.8 216 139.365 216 131.4ZM273.6 131.4C273.6 107.55 254.25 88.2 230.4 88.2C206.55 88.2 187.2 107.55 187.2 131.4C187.2 155.25 206.55 174.6 230.4 174.6C254.25 174.6 273.6 155.25 273.6 131.4Z" fill="#ED1C24"/>
</svg>
